<?xml version="1.0" standalone="no"?>
<!DOCTYPE svg PUBLIC "-//W3C//DTD SVG 1.1//EN" "http://www.w3.org/Graphics/SVG/1.1/DTD/svg11.dtd" >
<svg xmlns="http://www.w3.org/2000/svg">
<metadata></metadata>
<defs>
<font id="puritanbold" horiz-adv-x="1024" >
<font-face units-per-em="2048" ascent="1638" descent="-410" />
<missing-glyph horiz-adv-x="558" />
<glyph horiz-adv-x="0" />
<glyph horiz-adv-x="0" />
<glyph horiz-adv-x="558" />
<glyph unicode=" "  horiz-adv-x="558" />
<glyph unicode="&#x09;" horiz-adv-x="558" />
<glyph unicode="&#xa0;" horiz-adv-x="558" />
<glyph unicode="!" horiz-adv-x="480" d="M76 90q0 66 45 113t111 47q68 0 115 -47t47 -113q0 -68 -47 -113t-115 -45q-66 0 -111 46t-45 112zM114 352v1052h256v-1052h-256z" />
<glyph unicode="&#x22;" horiz-adv-x="672" d="M100 1320l46 -450h66l80 450h-192zM390 1320l44 -450h70l80 450h-194z" />
<glyph unicode="#" horiz-adv-x="1096" d="M142 776v170l188 20v72l-186 -20v170l188 20v140l180 18l-2 -138l76 6v140l180 22l-2 -140l148 14v-170l-148 -16v-70l146 14v-170l-148 -16v-178l-180 -20l2 180l-74 -8l-2 -180l-180 -20l2 180zM510 988l74 6v70l-74 -8v-68z" />
<glyph unicode="$" horiz-adv-x="1096" d="M148 164l132 162q124 -154 260 -154q70 0 117 52t47 132q0 88 -134 142q-206 86 -246 112q-134 98 -132 294q2 116 70 206q66 84 170 120v184h240v-178q104 -28 236 -136l-128 -158q-124 110 -218 110q-58 0 -94 -42t-36 -118t132 -120q188 -64 240 -104 q132 -100 132 -310q0 -292 -264 -372v-190h-240v184q-182 34 -284 184z" />
<glyph unicode="%" horiz-adv-x="1096" d="M6 -94l752 1392l202 -78l-738 -1388zM46 1060q0 116 68 194t172 78t173 -77t69 -195q0 -130 -67 -201t-175 -71q-106 0 -173 71t-67 201zM236 1054q0 -84 50 -84t50 84q0 90 -52 90q-48 0 -48 -90zM552 268q0 116 71 195t177 79q104 0 174 -78t70 -196q0 -136 -67 -208 t-177 -72t-176 70q-72 74 -72 210zM750 260q0 -86 50 -86t50 86q0 92 -52 92q-48 0 -48 -92z" />
<glyph unicode="&#x26;" horiz-adv-x="1136" d="M52 362q0 242 204 382q-68 112 -68 228q0 146 101 242t241 96q86 0 144 -26q70 -32 144 -120l-116 -128q-78 94 -206 94q-84 0 -84 -128q0 -58 38 -154q84 32 224 36l32 -164q-104 0 -162 -16q114 -164 208 -268q8 30 8 60q0 68 -18 148l180 32l8 -56q10 -62 10 -102 q0 -104 -36 -222q44 -38 190 -118l-132 -178q-68 24 -188 122q-38 -58 -122 -98q-90 -44 -180 -42q-200 0 -316 116q-104 104 -104 264zM266 380q0 -84 48 -148q56 -78 148 -78q84 0 172 92q-220 208 -290 352q-78 -60 -78 -218z" />
<glyph unicode="'" horiz-adv-x="396" d="M102 1324l60 -478h60l72 478h-192z" />
<glyph unicode="(" horiz-adv-x="650" d="M94 662q0 506 238 954l166 -92q-188 -500 -188 -862q0 -222 56 -444q26 -98 136 -422l-170 -88q-238 470 -238 954z" />
<glyph unicode=")" horiz-adv-x="646" d="M150 -204q112 334 134 416q58 222 58 442q0 378 -186 872l166 88q230 -436 228 -946q0 -502 -228 -960z" />
<glyph unicode="*" horiz-adv-x="562" d="M28 1090l124 76l-122 78l82 142l90 -80l-4 116l154 -4l-6 -108l84 78l82 -144l-116 -76l120 -78l-86 -144l-84 78l4 -110h-154l4 110l-86 -78z" />
<glyph unicode="+" horiz-adv-x="1018" d="M106 544v194h310v330h188v-330h310v-194h-310v-348h-188v348h-310z" />
<glyph unicode="," horiz-adv-x="520" d="M84 -192q38 84 54 190q2 20 10 176h214q0 -74 -48 -202q-44 -122 -94 -192z" />
<glyph unicode="-" horiz-adv-x="778" d="M102 546v192h574v-192h-574z" />
<glyph unicode="." horiz-adv-x="498" d="M74 158q0 74 53 126t125 52t125 -52t53 -126t-52 -125t-126 -51q-72 0 -125 51t-53 125z" />
<glyph unicode="/" horiz-adv-x="788" d="M-28 -306l634 1754l246 -50l-632 -1752z" />
<glyph unicode="0" d="M16 646q0 294 116 482q134 216 378 216q246 0 378 -214q118 -190 120 -484q0 -246 -118 -436q-146 -236 -380 -234q-252 -2 -392 234q-102 174 -102 436zM256 646q0 -176 46 -296q62 -176 208 -176q150 0 218 172q48 120 46 300q0 500 -264 498q-164 0 -222 -182 q-32 -104 -32 -316z" />
<glyph unicode="1" d="M206 0v204h274v890h-254v210h474v-1100h248v-204h-742z" />
<glyph unicode="2" d="M140 1080q148 268 370 268q190 0 314 -117t124 -297q0 -136 -88 -274q-68 -108 -202 -236q-108 -98 -220 -196h546v-228h-812v202l368 402q164 178 164 328q0 94 -50 160t-140 66q-118 0 -222 -182z" />
<glyph unicode="3" d="M110 142l106 154q154 -158 284 -156q116 0 176 76q52 64 52 158q0 92 -58 154q-64 70 -174 70h-128v176h128q86 0 146 62t60 152q0 72 -56 128t-132 56q-66 0 -112 -38q-30 -22 -92 -98l-128 118q152 198 330 198q146 0 262 -92q130 -102 130 -258q0 -108 -64 -182 q-40 -50 -136 -102q104 -52 172 -142q76 -102 76 -220q0 -134 -106 -256q-120 -140 -304 -138q-280 0 -432 180z" />
<glyph unicode="4" d="M32 288v156l582 890h192v-862h180v-184h-180v-288h-222v288h-552zM280 472h304v478z" />
<glyph unicode="5" d="M52 132l98 150q126 -158 308 -158q116 0 200 108q72 94 72 192q0 238 -234 238q-40 0 -110 -42t-110 -100l-168 42v756h758v-226h-594v-382q38 58 106 102q84 54 168 52q172 0 290 -118q122 -126 122 -330q0 -180 -126 -314q-146 -152 -388 -152q-282 2 -392 182z" />
<glyph unicode="6" d="M32 552q0 344 120 548q142 244 442 244q144 0 332 -92l-82 -170q-98 74 -252 74q-160 0 -246 -150q-72 -120 -84 -320q48 92 168 144q86 34 154 34q174 0 286 -104q124 -116 126 -324q0 -198 -126 -336q-132 -146 -336 -146q-216 0 -346 134q-156 156 -156 464zM280 396 q0 -114 64 -192q70 -86 190 -86q96 0 169 93t73 197q0 124 -61 192t-167 68q-112 0 -186 -70q-82 -76 -82 -202z" />
<glyph unicode="7" d="M74 1096v222h864v-206l-546 -1178l-226 62l554 1100h-646z" />
<glyph unicode="8" d="M74 362q0 218 278 358q-216 142 -214 292q0 170 126 260q106 76 264 76q146 0 246 -76q112 -86 112 -242q0 -162 -198 -296q278 -150 278 -368q0 -186 -108 -298q-118 -124 -342 -126q-190 0 -310 104q-132 112 -132 316zM284 366q0 -124 78 -192q64 -56 146 -56 q96 0 162 71t66 177q0 182 -222 270q-230 -116 -230 -270zM354 1018q24 -140 160 -196q184 72 184 192q0 74 -50 127t-120 53q-64 0 -112 -44q-54 -48 -62 -132z" />
<glyph unicode="9" d="M50 878q0 196 129 331t335 135q192 0 326 -140q158 -162 158 -460q0 -306 -94 -508q-136 -288 -432 -290q-244 0 -420 168l122 158q86 -78 153 -107t161 -29q146 0 218 166q58 130 58 316q-146 -172 -296 -172q-168 0 -288 118q-132 124 -130 314zM270 884 q0 -104 66 -188q70 -90 166 -90q112 0 182 75t70 189q0 118 -56 204q-66 98 -184 98q-108 0 -176 -82t-68 -206z" />
<glyph unicode=":" horiz-adv-x="498" d="M74 158q0 74 53 126t125 52t125 -52t53 -126t-52 -125t-126 -51q-72 0 -125 51t-53 125zM74 860q0 74 53 125t125 51q74 0 126 -51t52 -125t-53 -126t-125 -52t-125 52t-53 126z" />
<glyph unicode=";" horiz-adv-x="520" d="M84 -192q38 84 54 190q2 20 10 176h214q0 -74 -48 -202q-44 -122 -94 -192zM140 856q0 176 140 176q136 0 136 -176t-136 -176q-140 0 -140 176z" />
<glyph unicode="&#x3c;" horiz-adv-x="748" d="M0 592l484 492l252 -8l-412 -492l412 -490l-250 -8z" />
<glyph unicode="=" horiz-adv-x="902" d="M182 256v200h658v-200h-658zM182 520v200h658v-200h-658z" />
<glyph unicode="&#x3e;" horiz-adv-x="746" d="M-32 1076l252 8l482 -492l-482 -506l-248 8l410 490z" />
<glyph unicode="?" horiz-adv-x="1118" d="M130 1104q72 170 166 241t256 71q200 0 312 -108q100 -100 100 -266q0 -106 -48 -182q-38 -58 -134 -130q-110 -82 -156 -216q-10 -30 -10 -150h-200q-8 38 -4 100q4 96 4 84q0 106 44 172q36 54 166 158q96 78 96 164q0 76 -49 137t-113 61q-164 0 -238 -216zM374 122 q0 62 45 107t111 45q68 0 115 -44t47 -108t-47 -106t-115 -42q-66 0 -111 42t-45 106z" />
<glyph unicode="@" horiz-adv-x="2068" d="M68 488q0 390 288 666t694 276t651 -243t245 -637q0 -224 -177 -409t-399 -185q-122 0 -188 200q-140 -196 -314 -196q-358 0 -358 448q0 236 152 434q168 224 422 222q62 0 112 -32l86 -70l16 82h184q-14 -168 -50 -388q-34 -194 -68 -392l16 -98q12 -34 92 -34 q86 0 178 135t92 283q0 314 -192 520t-500 206t-526 -244q-212 -236 -212 -544q0 -328 176 -560q186 -250 480 -250q212 0 348 60q126 58 296 218l122 -140q-204 -186 -310 -236q-160 -76 -456 -76q-418 0 -666 292q-234 274 -234 692zM762 434q0 -132 24 -190 q38 -100 154 -100q62 0 151 90t103 174l70 384q-26 34 -86 67t-100 33q-102 0 -194 -94q-122 -124 -122 -364z" />
<glyph unicode="A" horiz-adv-x="1162" d="M48 4l426 1336h208l430 -1326l-238 -38l-96 328h-424l-94 -328zM410 494h312l-152 532z" />
<glyph unicode="B" horiz-adv-x="1026" d="M130 4v1308q16 0 192 4q130 4 204 4q164 0 259 -87t95 -245q0 -80 -51 -153t-133 -117q106 -8 187 -104t81 -220q0 -236 -168 -330q-122 -68 -366 -68q-56 0 -159 4t-141 4zM370 166h138q110 0 168 66q56 60 56 164q0 86 -58 152q-66 74 -170 74h-134v-456zM370 778h90 q92 0 148 58q50 54 50 132q-2 200 -170 202q-44 0 -118 -4v-388z" />
<glyph unicode="C" horiz-adv-x="1140" d="M64 674q0 266 140 458q162 220 438 220q174 0 402 -142l-86 -160q-130 76 -132 80q-74 34 -152 36q-164 0 -258 -186q-76 -148 -76 -328q0 -194 100 -328q94 -126 228 -128q72 0 136 26q50 18 158 80l96 -160q-136 -88 -212 -120q-98 -38 -216 -38q-278 0 -432 216 q-134 192 -134 474z" />
<glyph unicode="D" horiz-adv-x="1156" d="M130 4v1312q164 8 332 10q624 0 630 -664v-8q0 -308 -158 -478q-164 -180 -480 -180q-50 0 -145 4t-179 4zM378 178h114q158 0 256 150q88 134 88 314q0 524 -356 524h-48q-30 -2 -54 -2v-986z" />
<glyph unicode="E" horiz-adv-x="946" d="M130 0v1310h734v-174h-498v-336h466v-182l-466 2v-438h492v-182h-728z" />
<glyph unicode="F" horiz-adv-x="948" d="M130 0v1310h736v-174h-500v-336h470v-182h-470v-618h-236z" />
<glyph unicode="G" horiz-adv-x="1190" d="M64 662v8q0 243 128 442q156 240 420 240q94 0 214 -36q138 -44 216 -108l-84 -156q-164 112 -300 114q-154 0 -246 -188q-76 -154 -76 -326q0 -192 84 -328t206 -136q124 0 194 34v400h-270v178h512v-666q-134 -82 -212 -110q-100 -36 -232 -36q-264 0 -418 214 q-136 188 -136 460z" />
<glyph unicode="H" horiz-adv-x="1190" d="M130 0v1310h242v-510h450v510h240v-1310h-240v618h-450v-618h-242z" />
<glyph unicode="I" horiz-adv-x="500" d="M130 0v1312h242v-1312h-242z" />
<glyph unicode="J" horiz-adv-x="504" d="M-308 -228l126 154q50 -60 84 -82q46 -30 108 -30q120 0 122 308v1188h244v-1172q0 -520 -350 -520q-112 0 -188 40q-48 26 -146 114z" />
<glyph unicode="K" horiz-adv-x="1110" d="M130 0v1312h242v-594l412 660l216 -108q-164 -226 -426 -594q74 -122 250 -330q144 -166 286 -330l-286 -64q-202 276 -382 570l-70 -100v-422h-242z" />
<glyph unicode="L" horiz-adv-x="1026" d="M130 0v1312h238v-1138h530v-174h-768z" />
<glyph unicode="M" horiz-adv-x="1624" d="M150 0v1314h310l358 -966l364 966h290v-1314h-268v874l-312 -876h-212l-314 884v-882h-216z" />
<glyph unicode="N" horiz-adv-x="1190" d="M130 0v1318h196l528 -828v820h208v-1280l-194 -60q-200 368 -526 852l-2 -822h-210z" />
<glyph unicode="O" horiz-adv-x="1318" d="M66 660q0 286 170 475t432 189q260 0 424 -189t164 -475q0 -326 -176 -514q-166 -178 -426 -178q-258 0 -418 178q-170 188 -170 514zM322 642q0 -198 94 -344t238 -146q146 0 248 150q98 144 98 336q0 204 -90 352q-93 152 -242 152h-4q-152 0 -250 -152 q-92 -146 -92 -348z" />
<glyph unicode="P" horiz-adv-x="972" d="M130 0v1312l384 6h6q164 0 279 -111q117 -113 117 -283q0 -158 -137 -278t-307 -120q-24 0 -106 4v-530h-236zM366 670h66q102 0 175 75t73 173q0 234 -224 252q-6 1 -14 1q-12 0 -31 -2q-31 -3 -45 -3v-496z" />
<glyph unicode="Q" horiz-adv-x="1346" d="M64 658q0 288 171 477t435 189q262 0 426 -186t164 -474q0 -266 -154 -414l262 -238l-154 -172l-264 244q-162 -122 -294 -122q-258 0 -422 180q-170 190 -170 516zM322 644q0 -198 90 -344q96 -152 238 -152q88 0 158 58l-154 130l160 170l140 -128q48 74 48 268 q0 202 -88 344q-95 150 -244 150h-4q-154 0 -252 -150q-92 -144 -92 -346z" />
<glyph unicode="R" horiz-adv-x="1068" d="M130 0v1312q56 0 210 4q112 2 184 2q186 0 285 -101q97 -99 97 -272v-7q-2 -142 -82 -246q-72 -92 -182 -126q162 -226 468 -534l-302 -54q-150 154 -396 560h-46v-538h-236zM366 682h84q226 0 226 258q0 86 -34 146q-48 84 -154 84h-10l-112 -4v-484z" />
<glyph unicode="S" horiz-adv-x="928" d="M50 168l110 158q122 -144 280 -144q216 0 214 210q0 106 -150 168q-244 102 -272 122q-146 101 -146 308v6q2 168 134 274q112 90 244 90q212 0 386 -146l-82 -172q-140 132 -264 132q-84 0 -124 -34q-48 -38 -48 -138v-8q0 -94 144 -152q224 -90 268 -124 q144 -107 144 -316v-6q0 -210 -136 -322q-118 -94 -296 -94q-272 0 -406 188z" />
<glyph unicode="T" horiz-adv-x="1096" d="M64 1142v166h968v-166h-352v-1142h-244v1142h-372z" />
<glyph unicode="U" horiz-adv-x="1250" d="M130 482v828h242v-828q0 -164 92 -258q76 -78 170 -78q90 0 162 80q82 94 82 256v828h244v-828q0 -256 -172 -398q-144 -118 -340 -118q-192 0 -326 120q-154 138 -154 390v6z" />
<glyph unicode="V" horiz-adv-x="1110" d="M16 1282l254 64l316 -964l296 966l212 -68l-450 -1300h-180z" />
<glyph unicode="W" horiz-adv-x="1614" d="M22 1274l272 54l230 -902l226 876h210l226 -874l212 902l206 -58l-360 -1284h-160l-250 824l-264 -824h-180z" />
<glyph unicode="X" horiz-adv-x="1130" d="M54 20l386 630l-364 622l238 84l268 -522l272 526l190 -90l-360 -596l436 -654l-256 -72l-300 552l-284 -562z" />
<glyph unicode="Y" horiz-adv-x="1030" d="M22 1272l252 68l264 -580l280 580l188 -68l-372 -716v-556h-240v556z" />
<glyph unicode="Z" horiz-adv-x="1114" d="M72 152l628 974l-560 -4v186h824l48 -172l-614 -934h580v-202h-854z" />
<glyph unicode="[" horiz-adv-x="460" d="M148 -234v1750h318v-178h-118v-1356h134v-216h-334z" />
<glyph unicode="\" horiz-adv-x="788" d="M12 1398l224 50l570 -1754l-222 -48z" />
<glyph unicode="]" horiz-adv-x="544" d="M102 -18h134v1356h-118v178h312v-1750h-328v216z" />
<glyph unicode="^" horiz-adv-x="1096" d="M216 1054l330 350l338 -350l-122 -146l-216 242l-208 -242z" />
<glyph unicode="_" horiz-adv-x="1096" d="M10 -102h1076v-122h-1076v122z" />
<glyph unicode="`" horiz-adv-x="672" d="M96 1304l438 -170l130 148l-440 182z" />
<glyph unicode="a" horiz-adv-x="1004" d="M84 278q0 170 98 242q64 44 250 80q96 18 174 26v108q0 46 -37 85t-85 39q-186 0 -304 -140l-88 126q56 92 182 152q106 52 203 52h7q146 0 245 -94t99 -240v-514q0 -12 15 -28t31 -16q66 0 86 20l24 -130q-124 -68 -202 -68q-30 0 -80 36q-56 42 -70 96 q-86 -76 -118 -98q-65 -44 -130 -44h-6q-122 0 -204 80q-90 88 -90 230zM282 280q0 -58 37 -101t87 -43q124 0 204 98l2 222q-62 0 -150 -16q-98 -16 -130 -38q-50 -30 -50 -122z" />
<glyph unicode="b" horiz-adv-x="1054" d="M132 -2v1436h220v-546q38 70 134 124q83 48 143 48h5q162 0 260 -154q84 -138 84 -322q0 -604 -400 -604q-72 0 -244 114l-16 -96h-186zM352 262q30 -36 95 -67t115 -31q116 0 156 138q24 82 26 254q0 322 -180 322h-2q-116 0 -210 -192v-424z" />
<glyph unicode="c" horiz-adv-x="980" d="M80 496q0 274 160 424q130 126 313 126h11q116 0 310 -130l-68 -142q-134 108 -262 108q-110 0 -172 -130q-52 -106 -52 -251v-11q0 -158 66 -255t174 -97q120 0 266 130l92 -120q-80 -92 -162 -132t-196 -40q-268 0 -394 210q-86 142 -86 310z" />
<glyph unicode="d" horiz-adv-x="1046" d="M76 508q0 210 90 374q98 178 244 178q104 0 160 -24q30 -14 126 -90v482h222v-1430h-188l-18 102q-62 -38 -124 -78q-83 -48 -130 -48h-4q-186 0 -290 176q-88 148 -88 358zM318 530q0 -162 44 -262q50 -114 142 -114q62 0 192 106v440q-68 96 -88 118q-56 60 -122 60 q-168 0 -168 -348z" />
<glyph unicode="e" horiz-adv-x="1004" d="M80 506q0 232 122 380q132 158 356 158q154 0 258 -102q114 -112 114 -300v-154h-606q4 -346 240 -348h4q132 0 262 128l92 -124q-106 -102 -186 -138q-72 -30 -188 -30q-268 0 -390 220q-78 144 -78 310zM338 662h368q1 12 1 24q0 198 -162 198h-3q-70 0 -122 -52 q-64 -62 -82 -170z" />
<glyph unicode="f" horiz-adv-x="662" d="M36 836v184h144v108q0 400 298 400q94 0 142 -28q10 -6 100 -86l-98 -138q-78 68 -142 70h-2q-86 0 -86 -202q0 -26 2 -69t2 -55h254v-184h-254v-836h-216v836h-144z" />
<glyph unicode="g" horiz-adv-x="1046" d="M84 -240q0 110 182 228q-80 0 -130 48q-46 44 -46 104q0 40 72 108q92 90 100 100q-162 126 -162 308q0 152 113 264t279 112q192 0 286 -118l268 120v-232h-202q30 -100 30 -140q0 -164 -108 -273t-270 -109q-54 0 -116 20q-8 -12 -42 -50q-24 -26 -24 -38q0 -64 94 -74 q14 -2 148 -2q218 0 278 -26q126 -50 126 -232t-208 -288q-160 -80 -326 -80q-154 0 -248 66t-94 184zM304 -190q0 -78 30 -112q38 -40 144 -40q100 0 186 70t86 142q0 62 -46 82q-32 14 -122 16h-192q-20 -6 -53 -58t-33 -100zM324 656q0 -78 42 -144q50 -76 130 -76 q72 0 121 69t49 161q0 70 -50 136q-56 74 -128 74q-76 0 -124 -76q-40 -64 -40 -144z" />
<glyph unicode="h" horiz-adv-x="1048" d="M130 0v1426h218v-594q113 214 248 214h2q118 0 218 -94q104 -104 104 -258v-694h-220v668q0 192 -114 192q-90 0 -172 -96q-66 -78 -66 -110v-654h-218z" />
<glyph unicode="i" horiz-adv-x="476" d="M88 1346q0 66 45 109t107 43q60 0 105 -43t45 -109t-44 -110t-106 -44t-107 44t-45 110zM130 0v1014h218v-1014h-218z" />
<glyph unicode="j" horiz-adv-x="476" d="M-62 -270q172 52 188 138q2 10 4 106v1040h220v-1126q0 -162 -106 -238q-74 -52 -228 -106zM94 1348q0 66 45 109t107 43t107 -43t45 -109t-45 -109t-107 -43t-107 43t-45 109z" />
<glyph unicode="k" horiz-adv-x="974" d="M130 -2v1430h218v-836l364 506l194 -134l-378 -400l444 -500l-196 -128l-366 518l-62 -90v-366h-218z" />
<glyph unicode="l" horiz-adv-x="478" d="M132 0v1430h216v-1430h-216z" />
<glyph unicode="m" horiz-adv-x="1588" d="M130 0v1016h218v-182q130 204 264 204q74 0 147 -59t105 -135q154 204 290 204q140 0 226 -112q80 -100 80 -232v-704h-230v694q0 166 -110 166q-52 0 -124 -70q-88 -84 -88 -182v-608h-230v664q0 76 -38 132t-82 56q-62 0 -136 -86t-74 -140v-626h-218z" />
<glyph unicode="n" horiz-adv-x="1048" d="M130 0v1016h218v-182q124 212 252 212q130 0 222 -100q98 -106 98 -266v-680h-220v656q0 102 -36 158q-29 48 -76 48h-4q-76 0 -156 -87t-80 -155v-620h-218z" />
<glyph unicode="o" horiz-adv-x="1118" d="M80 516q0 262 166 410q138 122 320 122q180 0 312 -122q160 -146 160 -410q0 -180 -92 -330q-130 -208 -382 -208q-276 0 -402 210q-82 140 -82 328zM318 504q0 -148 58 -250q66 -116 180 -116q116 0 184 118q60 101 60 248v10q0 150 -54 254q-64 118 -172 118 q-124 0 -196 -120q-60 -106 -60 -262z" />
<glyph unicode="p" horiz-adv-x="1058" d="M130 -404v1420h218v-168q26 80 110 141t168 61q192 0 284 -164q74 -134 74 -352q0 -582 -426 -582q-62 2 -210 106v-462h-218zM348 234q126 -94 212 -94q94 0 144 126q40 102 42 242q0 162 -34 242q-44 112 -156 112q-50 0 -122 -88q-66 -78 -86 -140v-400z" />
<glyph unicode="q" horiz-adv-x="1046" d="M76 516q0 176 82 336q96 188 248 188q94 0 158 -30q40 -18 128 -88v94h220v-1420h-220v492q-106 -76 -126 -88q-80 -48 -132 -48q-172 0 -268 168q-90 154 -90 396zM312 498q0 -148 53 -256t135 -108q28 0 90 56q94 86 102 92v416q-18 56 -77 111t-113 55 q-190 -2 -190 -366z" />
<glyph unicode="r" horiz-adv-x="692" d="M130 0v1016h218v-166q26 64 74 120q56 66 102 66q78 0 128 -20l-26 -254q-34 20 -52 24q-10 2 -62 0q-60 -2 -114 -64q-50 -54 -50 -84v-638h-218z" />
<glyph unicode="s" horiz-adv-x="894" d="M94 136l114 152q107 -142 236 -142h4q66 0 106 37t40 93q0 102 -234 170q-116 32 -170 84q-70 68 -70 184q0 166 110 258q92 80 226 80h4q138 0 312 -110l-80 -152q-118 84 -216 84q-66 0 -102 -35t-36 -79q0 -56 44 -74q72 -28 140 -50q294 -88 296 -298 q0 -178 -118 -278q-104 -88 -260 -88q-222 0 -346 164z" />
<glyph unicode="t" horiz-adv-x="718" d="M44 840v168h142v214h232v-214h204v-170l-204 2v-548q0 -130 74 -130h2q62 0 82 8q2 0 70 38l48 -140q-104 -58 -142 -70q-52 -14 -160 -14q-206 0 -206 332v524h-142z" />
<glyph unicode="u" horiz-adv-x="1046" d="M130 340v674h218v-668q0 -192 106 -192q74 0 160 94q80 86 80 140v626h220v-1014h-200q-6 56 -20 146q-142 -182 -254 -182q-126 0 -216 100q-94 108 -94 276z" />
<glyph unicode="v" horiz-adv-x="950" d="M32 970l222 64l230 -786l218 786l216 -64l-360 -994h-156z" />
<glyph unicode="w" horiz-adv-x="1504" d="M46 972l224 58l190 -786l208 766h192l216 -764l178 784l218 -58l-316 -990h-176l-222 646l-228 -646h-178z" />
<glyph unicode="x" horiz-adv-x="998" d="M12 66l348 438l-310 426l204 122l256 -402l264 400l182 -104l-326 -432l358 -450l-192 -132l-298 442l-296 -438z" />
<glyph unicode="y" horiz-adv-x="982" d="M34 -352l66 194q76 -40 144 -40h2q103 0 174 264l-372 902l232 62l242 -750l222 746l206 -52l-408 -1134q-36 -96 -108 -162q-88 -80 -200 -80q-58 0 -200 50z" />
<glyph unicode="z" horiz-adv-x="986" d="M108 0v158l416 570q20 30 80 108h-478v176h748v-164l-384 -536q-26 -44 -86 -124h496v-188h-792z" />
<glyph unicode="{" horiz-adv-x="1096" d="M230 634l2 114q74 86 90 112q40 66 40 144q0 50 -5 139t-5 129q0 436 324 436q54 0 176 -30l-40 -230q-106 36 -132 36q-80 0 -98 -80q-6 -22 -6 -146q0 -52 5 -142t5 -118q0 -154 -150 -304v-14q66 -60 112 -152q56 -112 56 -228q0 -46 -7 -162t-7 -158q0 -112 6 -134 q10 -30 50 -30q88 0 142 50l62 -242q-96 -32 -212 -28q-188 10 -248 186q-34 102 -36 342q0 28 4 110t4 128q0 154 -132 272z" />
<glyph unicode="|" horiz-adv-x="468" d="M134 -450v1854h262v-1854h-262z" />
<glyph unicode="}" horiz-adv-x="1096" d="M260 1678q122 30 176 30q324 0 324 -436q0 -38 -5 -129t-5 -139q0 -78 40 -144q16 -26 90 -112l2 -114q-134 -118 -132 -272q0 -48 3 -129t3 -109q0 -242 -36 -344q-60 -174 -246 -184q-116 -6 -212 28l60 242q58 -52 144 -50q34 0 44 17t12 67v80q0 44 -7 159t-7 161 q0 116 58 228q46 92 110 152v14q-150 150 -150 304q0 28 5 118t5 142q0 124 -6 146q-18 80 -98 80q-26 0 -130 -36z" />
<glyph unicode="~" horiz-adv-x="808" d="M166 928q90 90 194 90q68 0 134 -37t76 -37q22 -2 62 42q20 24 42 46l54 -178q-92 -78 -172 -78q-56 0 -128 50q-52 34 -72 34q-24 0 -50 -26q-16 -16 -80 -96z" />
<glyph unicode="&#xa1;" horiz-adv-x="480" d="M76 1330q0 66 46 111t112 45q68 0 114 -45t46 -111t-46 -113t-114 -47q-66 0 -112 47t-46 113zM98 -210v1236h254v-1236h-254z" />
<glyph unicode="&#xa2;" horiz-adv-x="980" d="M78 496q0 232 104 374q92 124 244 164v174h242v-172q108 -24 226 -120l-100 -156q-104 84 -130 100q-56 32 -114 32q-102 0 -170 -126q-64 -118 -62 -276q0 -154 69 -253t157 -99q64 0 124 38q46 26 132 110l120 -144q-120 -124 -252 -162v-162h-242v160 q-200 46 -288 240q-60 128 -60 278z" />
<glyph unicode="&#xa3;" horiz-adv-x="974" d="M116 168q36 8 72 18q48 12 68 34q52 52 52 146q0 130 -20 234h-136v190h110q-20 110 -20 166q0 164 84 270q94 116 260 118q124 0 268 -84l-90 -166q-140 70 -168 70q-64 0 -107 -67t-43 -149q0 -30 26 -158h258v-190h-218q8 -88 8 -198q0 -94 -64 -168q76 10 172 10 q124 0 284 -44l-44 -224q-28 8 -150 50q-72 28 -118 28q-96 0 -452 -90z" />
<glyph unicode="&#xa4;" horiz-adv-x="1000" d="M74 462v160h186v94h-186v178h186v416h604v-214h-364v-202h332v-180h-332v-92h332v-160h-332v-238l358 2v-226h-598v462h-186z" />
<glyph unicode="&#xa5;" horiz-adv-x="1086" d="M44 1312h252l226 -460l226 460h254l-350 -724h154v-170h-160v-100h160v-170h-160v-144h-244v144h-168v170h168v100h-168v170h162z" />
<glyph unicode="&#xa6;" horiz-adv-x="372" d="M110 -36v606h158v-606h-158zM110 738v606h158v-606h-158z" />
<glyph unicode="&#xa7;" horiz-adv-x="802" d="M102 -48l100 162q94 -108 190 -108q34 0 58 26t24 46q0 34 -32 48q-6 4 -60 20q-36 8 -104 32q-136 52 -134 196q0 102 58 172q-60 56 -58 150q0 126 82 198q72 62 170 60q100 -2 236 -90l-68 -166q-120 82 -172 82q-56 0 -64 -28q-4 -12 -4 -44q0 -22 134 -52 q198 -64 200 -232q0 -106 -54 -172q54 -56 54 -150q2 -138 -86 -212q-76 -68 -192 -68q-148 -2 -278 130zM324 388q0 -14 70 -36l40 -12q38 26 40 60q0 32 -32 48q-12 6 -70 24q-48 -8 -48 -84z" />
<glyph unicode="&#xa8;" horiz-adv-x="626" d="M-52 1286q0 54 36 96q38 52 108 52q68 0 108 -52q34 -44 36 -96q0 -56 -36 -98q-40 -50 -108 -50q-70 0 -108 50q-36 40 -36 98zM378 1286q0 56 34 96q40 52 110 52q68 0 108 -52q34 -44 36 -96q0 -56 -36 -98q-40 -50 -108 -50q-70 0 -108 50q-36 40 -36 98z" />
<glyph unicode="&#xa9;" horiz-adv-x="1630" d="M138 648q0 280 198 479t480 199q280 0 478 -199t198 -479t-198 -479t-478 -199t-479 199t-199 479zM270 648q0 -226 160 -386t386 -160t385 160t159 386t-160 385t-384 159q-226 0 -386 -159t-160 -385zM444 652q0 174 90 294q102 138 282 140q122 0 246 -72l-48 -104 q-120 74 -192 74q-132 0 -204 -126q-56 -98 -54 -224q0 -140 71 -230t177 -90q108 0 208 56l52 -86q-144 -76 -260 -76q-178 0 -280 138q-88 120 -88 306z" />
<glyph unicode="&#xab;" horiz-adv-x="798" d="M-2 592l318 332l218 -8l-266 -330l266 -328l-218 -8zM320 592l318 332l220 -8l-268 -330l268 -328l-220 -8z" />
<glyph unicode="&#xac;" horiz-adv-x="1254" d="M180 460v242h962v-644h-234v402h-728z" />
<glyph unicode="&#xad;" horiz-adv-x="778" d="M102 546v192h574v-192h-574z" />
<glyph unicode="&#xae;" horiz-adv-x="1630" d="M138 648q0 280 198 479t480 199q280 0 478 -199t198 -479t-198 -479t-478 -199t-479 199t-199 479zM270 648q0 -226 160 -386t386 -160t385 160t159 386t-160 385t-384 159q-226 0 -385 -159t-159 -385h-2zM544 234v840q198 4 264 4q230 -2 228 -232q-2 -186 -200 -224 q70 -96 140 -190q50 -64 174 -184l-144 -26q-70 70 -156 192q-56 80 -130 200l-58 -2v-378h-118zM662 700h86q104 0 146 42q34 36 36 118q0 140 -154 138l-114 -2v-296z" />
<glyph unicode="&#xaf;" horiz-adv-x="830" d="M216 1216v134h478v-134h-478z" />
<glyph unicode="&#xb0;" horiz-adv-x="558" d="M-10 1192q0 118 85 202t207 84t205 -84t83 -202t-82 -202t-206 -84q-122 0 -207 84t-85 202zM140 1192q0 -62 41 -103t101 -41q62 0 100 41t38 103t-38 103t-100 41t-102 -41t-40 -103z" />
<glyph unicode="&#xb1;" horiz-adv-x="1026" d="M106 532v196h308v330h190v-330h310v-196h-310v-350h-190v350h-308zM134 -78v178h770v-178h-770z" />
<glyph unicode="&#xb4;" horiz-adv-x="672" d="M96 1282l440 182l66 -160l-438 -170z" />
<glyph unicode="&#xb6;" horiz-adv-x="1038" d="M102 990q0 176 84 254q78 72 242 70h206v-1314h-202v650q-332 0 -330 340zM692 0v1314h202v-1314h-202z" />
<glyph unicode="&#xb7;" horiz-adv-x="482" d="M84 846q0 82 52 142t126 60q76 0 126 -59t50 -143q0 -82 -50 -142t-126 -60q-74 0 -126 60t-52 142z" />
<glyph unicode="&#xb8;" horiz-adv-x="418" d="M22 -360l84 58q62 -72 122 -70q16 0 32 31t16 51q0 26 -15 49t-27 23q-60 0 -74 -32l-116 34l12 224l164 2l-8 -84h8q86 0 138 -64q46 -56 46 -128q0 -80 -40 -144q-50 -80 -138 -80q-146 0 -204 130z" />
<glyph unicode="&#xbb;" horiz-adv-x="804" d="M-34 258l270 328l-268 330l220 8l316 -332l-316 -342zM288 258l272 328l-272 330l224 8l316 -332l-316 -342z" />
<glyph unicode="&#xbf;" horiz-adv-x="940" d="M70 166q0 208 156 328q86 66 114 188q26 116 8 320h220q16 -96 16 -194q0 -312 -156 -454q-88 -82 -90 -82q-50 -56 -50 -108q0 -74 42 -115t106 -41q146 0 216 216l194 -104q-68 -172 -158 -250q-96 -82 -244 -80q-172 0 -278 122q-96 110 -96 254zM316 1246 q0 62 43 105t101 43q60 0 102 -42t42 -106t-42 -108t-102 -44t-102 44t-42 108z" />
<glyph unicode="&#xc0;" horiz-adv-x="1186" d="M60 4l424 1336h208l432 -1326l-238 -38l-114 368h-370l-112 -368zM320 1590l96 132l430 -196l-98 -122zM456 534h260l-128 456z" />
<glyph unicode="&#xc1;" horiz-adv-x="1162" d="M60 4l424 1336h208l432 -1326l-238 -38l-114 368h-370l-112 -368zM300 1528l440 182l126 -160l-438 -170zM456 534h260l-128 456z" />
<glyph unicode="&#xc2;" horiz-adv-x="1162" d="M60 4l424 1336h208l432 -1326l-238 -38l-114 368h-370l-112 -368zM300 1354v200l280 218l290 -218v-198l-288 178zM456 534h260l-128 456z" />
<glyph unicode="&#xc3;" horiz-adv-x="1186" d="M60 4l424 1336h208l432 -1326l-238 -38l-114 368h-370l-112 -368zM266 1584q80 102 216 106q62 2 141 -53t99 -55q26 0 106 62l76 -156q-32 -32 -89 -54t-87 -22q-60 -2 -156 60q-74 48 -90 48q-54 0 -136 -96zM456 534h260l-128 456z" />
<glyph unicode="&#xc4;" horiz-adv-x="1186" d="M60 4l424 1336h208l432 -1326l-238 -38l-114 368h-370l-112 -368zM238 1552q0 56 32 96q40 52 110 52q68 0 110 -52q34 -44 34 -96q0 -56 -34 -98q-40 -50 -110 -50t-108 50q-34 40 -34 98zM456 534h260l-128 456zM668 1552q0 56 32 96q40 52 112 52q66 0 108 -52 q34 -44 34 -96q0 -56 -34 -98q-40 -50 -108 -50q-70 0 -112 50q-32 40 -32 98z" />
<glyph unicode="&#xc5;" horiz-adv-x="1186" d="M60 4l424 1336h208l432 -1326l-238 -38l-114 368h-370l-112 -368zM414 1584q0 76 52 126t134 50t134 -51t52 -125q0 -78 -52 -129t-134 -51t-134 51t-52 129zM456 534h260l-128 456zM532 1584q0 -90 68 -92q68 0 68 92q0 88 -68 88t-68 -88z" />
<glyph unicode="&#xc6;" horiz-adv-x="1764" d="M48 4l438 1336h212l208 -706v678h778v-196h-526v-316h490v-202h-490v-396h520v-204h-790l-108 346h-380l-114 -368zM464 556h254l-128 454z" />
<glyph unicode="&#xc7;" horiz-adv-x="1166" d="M76 674q0 266 136 456q156 220 434 222q186 2 406 -130l-104 -222q-70 48 -140 92q-88 54 -152 52q-166 0 -260 -174q-76 -142 -76 -318q0 -196 94 -327t224 -131q110 0 318 118l114 -194q-140 -76 -206 -98q-86 -32 -184 -36l-6 -80q18 8 50 8q86 0 140 -60 q46 -52 46 -122q0 -72 -52 -125t-146 -53q-132 0 -178 98l76 70q58 -66 104 -66q72 0 72 70q0 80 -68 80q-28 0 -70 -32l-96 44l12 172q-240 30 -372 242q-116 184 -116 444z" />
<glyph unicode="&#xc8;" horiz-adv-x="1000" d="M140 0v1310h734v-214h-496v-296h464v-202l-464 2v-376l492 2v-226h-730zM258 1590l94 132l432 -196l-100 -122z" />
<glyph unicode="&#xc9;" horiz-adv-x="960" d="M140 0v1310h734v-214h-496v-296h464v-202l-464 2v-376l492 2v-226h-730zM238 1548l438 182l126 -160l-438 -170z" />
<glyph unicode="&#xca;" horiz-adv-x="1000" d="M140 0v1310h734v-214h-496v-296h464v-202l-464 2v-376l492 2v-226h-730zM256 1394v180l282 218l292 -218v-178l-292 158z" />
<glyph unicode="&#xcb;" horiz-adv-x="1000" d="M140 0v1310h734v-214h-496v-296h464v-202l-464 2v-376l492 2v-226h-730zM176 1552q0 56 32 96q40 52 112 52q66 0 106 -52q34 -44 34 -96q0 -56 -34 -98q-38 -50 -106 -50q-70 0 -112 50q-32 40 -32 98zM604 1552q0 54 34 96q38 52 110 52q68 0 108 -52q34 -44 34 -96 q0 -56 -34 -98q-40 -50 -108 -50q-70 0 -110 50q-34 40 -34 98z" />
<glyph unicode="&#xcc;" horiz-adv-x="440" d="M-22 1590l96 132l430 -196l-98 -122zM98 0v1314h264v-1314h-264z" />
<glyph unicode="&#xcd;" horiz-adv-x="440" d="M-44 1528l442 182l126 -160l-438 -170zM98 0v1314h264v-1314h-264z" />
<glyph unicode="&#xce;" horiz-adv-x="440" d="M-64 1394v180l284 218l290 -218v-178l-290 158zM86 0v1314h264v-1314h-264z" />
<glyph unicode="&#xcf;" horiz-adv-x="440" d="M-124 1532q0 56 32 96q40 52 110 52q66 0 106 -52q34 -44 36 -96q0 -56 -36 -98q-38 -50 -106 -50q-70 0 -110 50q-32 40 -32 98zM98 0v1314h264v-1314h-264zM304 1532q0 54 34 96q38 52 108 52q68 0 110 -52q34 -44 34 -96q0 -56 -34 -98q-40 -50 -110 -50t-108 50 q-34 40 -34 98z" />
<glyph unicode="&#xd0;" horiz-adv-x="1156" d="M12 514v208h108v594q166 8 316 10q332 0 490 -154q164 -162 166 -510q2 -314 -160 -486q-166 -180 -484 -180q-52 0 -148 4t-180 4v510h-108zM366 220h132q162 0 254 128q82 116 82 294q0 238 -74 354q-84 130 -272 128h-58q-40 -2 -64 -2v-400h130v-208h-130v-294z" />
<glyph unicode="&#xd1;" horiz-adv-x="1166" d="M140 -2v1320h196l508 -788v780h230v-1280l-174 -60q-160 290 -530 838v-806zM310 1522q80 102 214 106q62 2 142 -53t100 -55q26 0 104 64l76 -156q-32 -32 -89 -55t-87 -23q-60 0 -156 62q-74 48 -90 46q-54 0 -134 -96z" />
<glyph unicode="&#xd2;" horiz-adv-x="1318" d="M76 660q0 286 170 475t432 189t425 -189t163 -475q0 -326 -176 -514q-166 -178 -426 -178q-258 0 -418 178q-170 188 -170 514zM312 642q0 -192 102 -331t250 -139q150 0 259 138t109 328q0 198 -102 341t-256 143t-258 -142t-104 -338zM408 1590l96 132l430 -196 l-98 -122z" />
<glyph unicode="&#xd3;" horiz-adv-x="1318" d="M76 660q0 286 170 475t432 189t425 -189t163 -475q0 -326 -176 -514q-166 -178 -426 -178q-258 0 -418 178q-170 188 -170 514zM312 642q0 -192 102 -331t250 -139q150 0 259 138t109 328q0 198 -102 341t-256 143t-258 -142t-104 -338zM388 1528l440 182l126 -160 l-438 -170z" />
<glyph unicode="&#xd4;" horiz-adv-x="1318" d="M76 660q0 286 170 475t432 189t425 -189t163 -475q0 -326 -176 -514q-166 -178 -426 -178q-258 0 -418 178q-170 188 -170 514zM312 642q0 -192 102 -331t250 -139q150 0 259 138t109 328q0 198 -102 341t-256 143t-258 -142t-104 -338zM400 1354v200l282 218l290 -218 v-198l-290 178z" />
<glyph unicode="&#xd5;" horiz-adv-x="1326" d="M76 660q0 286 170 475t432 189t425 -189t163 -475q0 -326 -176 -514q-166 -178 -426 -178q-258 0 -418 178q-170 188 -170 514zM310 1542q80 102 214 106q62 2 142 -53t100 -55q26 0 104 64l76 -156q-32 -32 -89 -55t-87 -23q-60 0 -156 62q-74 48 -90 46q-54 0 -134 -96 zM312 642q0 -192 102 -331t250 -139q150 0 259 138t109 328q0 198 -102 341t-256 143t-258 -142t-104 -338z" />
<glyph unicode="&#xd6;" horiz-adv-x="1326" d="M76 660q0 286 170 475t432 189t425 -189t163 -475q0 -326 -176 -514q-166 -178 -426 -178q-258 0 -418 178q-170 188 -170 514zM312 642q0 -192 102 -331t250 -139q150 0 259 138t109 328q0 198 -102 341t-256 143t-258 -142t-104 -338zM326 1532q0 56 32 96 q40 52 110 52q68 0 110 -52q34 -44 34 -96q0 -56 -34 -98q-40 -50 -110 -50t-108 50q-34 40 -34 98zM756 1532q0 56 32 96q40 52 112 52q66 0 108 -52q34 -44 34 -96q0 -56 -34 -98q-40 -50 -108 -50q-70 0 -112 50q-32 40 -32 98z" />
<glyph unicode="&#xd8;" horiz-adv-x="1318" d="M66 660q0 286 170 475t432 189q46 0 84 -8l26 90l224 -68l-32 -102q134 -84 210 -235t76 -341q0 -326 -176 -514q-166 -178 -426 -178q-22 0 -64 4l-38 -124l-222 70l36 120q-300 174 -300 622zM302 642q0 -226 134 -372l256 850q-10 2 -28 2q-156 0 -259 -142t-103 -338 zM652 172h2q150 0 259 138t109 328q0 222 -120 366z" />
<glyph unicode="&#xd9;" horiz-adv-x="1168" d="M140 482v828h242v-828q0 -316 202 -316q90 0 152 70q72 84 70 246v828h244v-828q0 -258 -150 -398q-130 -118 -320 -118q-188 0 -306 120q-136 136 -134 396zM322 1590l96 132l430 -196l-98 -122z" />
<glyph unicode="&#xda;" horiz-adv-x="1168" d="M140 482v828h242v-828q0 -316 202 -316q90 0 152 70q72 84 70 246v828h244v-828q0 -258 -150 -398q-130 -118 -320 -118q-188 0 -306 120q-136 136 -134 396zM302 1528l440 182l126 -160l-438 -170z" />
<glyph unicode="&#xdb;" horiz-adv-x="1168" d="M140 482v828h242v-828q0 -316 202 -316q90 0 152 70q72 84 70 246v828h244v-828q0 -258 -150 -398q-130 -118 -320 -118q-188 0 -306 120q-136 136 -134 396zM296 1374v180l284 218l290 -218v-178l-290 158z" />
<glyph unicode="&#xdc;" horiz-adv-x="1066" d="M140 482v828h242v-828q0 -316 202 -316q90 0 152 70q72 84 70 246v828h244v-828q0 -258 -150 -398q-130 -118 -320 -118q-188 0 -306 120q-136 136 -134 396zM220 1532q0 56 32 96q40 52 110 52q66 0 106 -52q34 -44 36 -96q0 -56 -36 -98q-38 -50 -106 -50 q-70 0 -110 50q-32 40 -32 98zM648 1532q0 54 34 96q38 52 108 52q68 0 110 -52q34 -44 34 -96q0 -56 -34 -98q-40 -50 -110 -50t-108 50q-34 40 -34 98z" />
<glyph unicode="&#xdd;" horiz-adv-x="1030" d="M54 1272l224 68l252 -572l248 572l218 -68l-348 -716v-556h-244v556zM280 1426l438 182l128 -160l-438 -170z" />
<glyph unicode="&#xde;" horiz-adv-x="1112" d="M122 -222v1656h234v-166q134 118 212 118q208 0 334 -178q108 -156 110 -374q2 -288 -130 -434q-114 -126 -310 -128q-54 0 -108 32l-108 64v-590h-234zM356 574q30 -46 89 -79t117 -33q106 0 162 108q50 94 50 238q0 150 -56 252q-66 118 -186 120q-110 0 -176 -136 v-470z" />
<glyph unicode="&#xdf;" horiz-adv-x="1124" d="M106 -2v1026q0 190 106 310q116 132 332 130q182 0 285 -103t103 -281q0 -138 -70 -258q-120 46 -170 44q-94 0 -94 -100q0 -36 48 -60q12 -6 108 -36q162 -52 230 -160q48 -76 46 -192q0 -146 -107 -247t-249 -101q-116 0 -164 22q-56 26 -146 132l102 162 q60 -84 122 -106q26 -10 96 -10q56 0 90 48q26 36 26 88q0 66 -68 104q-24 12 -124 44q-230 76 -230 322q0 82 72 174q84 108 200 108q46 0 92 -18q6 10 6 34q0 16 -2 44t-2 36q0 48 -68 76q-60 28 -142 30q-82 0 -142 -68t-60 -168v-1026h-226z" />
<glyph unicode="&#xe0;" horiz-adv-x="1004" d="M84 278q0 170 98 242q64 44 250 80q96 18 174 26v108q0 46 -37 85t-85 39q-186 0 -304 -140l-88 126q56 92 182 152q110 54 210 52q146 0 245 -94t99 -240v-514q0 -12 15 -28t31 -16q66 0 86 20l24 -130q-124 -68 -202 -68q-30 0 -80 36q-56 42 -70 96q-86 -76 -118 -98 q-68 -46 -136 -44q-122 0 -204 80q-90 88 -90 230zM198 1304l438 -170l130 148l-440 182zM282 280q0 -58 37 -101t87 -43q124 0 204 98l2 222q-62 0 -150 -16q-98 -16 -130 -38q-50 -30 -50 -122z" />
<glyph unicode="&#xe1;" horiz-adv-x="1004" d="M84 278q0 170 98 242q64 44 250 80q96 18 174 26v108q0 46 -37 85t-85 39q-186 0 -304 -140l-88 126q56 92 182 152q110 54 210 52q146 0 245 -94t99 -240v-514q0 -12 15 -28t31 -16q66 0 86 20l24 -130q-124 -68 -202 -68q-30 0 -80 36q-56 42 -70 96q-86 -76 -118 -98 q-68 -46 -136 -44q-122 0 -204 80q-90 88 -90 230zM258 1282l440 182l128 -160l-438 -170zM282 280q0 -58 37 -101t87 -43q124 0 204 98l2 222q-62 0 -150 -16q-98 -16 -130 -38q-50 -30 -50 -122z" />
<glyph unicode="&#xe2;" horiz-adv-x="1004" d="M84 278q0 170 98 242q64 44 250 80q96 18 174 26v108q0 46 -37 85t-85 39q-186 0 -304 -140l-88 126q56 92 182 152q110 54 210 52q146 0 245 -94t99 -240v-514q0 -12 15 -28t31 -16q66 0 86 20l24 -130q-124 -68 -202 -68q-30 0 -80 36q-56 42 -70 96q-86 -76 -118 -98 q-68 -46 -136 -44q-122 0 -204 80q-90 88 -90 230zM236 1068v180l282 216l290 -216v-178l-290 156zM282 280q0 -58 37 -101t87 -43q124 0 204 98l2 222q-62 0 -150 -16q-98 -16 -130 -38q-50 -30 -50 -122z" />
<glyph unicode="&#xe3;" horiz-adv-x="1004" d="M84 278q0 170 98 242q64 44 250 80q96 18 174 26v108q0 46 -37 85t-85 39q-186 0 -304 -140l-88 126q56 92 182 152q110 54 210 52q146 0 245 -94t99 -240v-514q0 -12 15 -28t31 -16q66 0 86 20l24 -130q-124 -68 -202 -68q-30 0 -80 36q-56 42 -70 96q-86 -76 -118 -98 q-68 -46 -136 -44q-122 0 -204 80q-90 88 -90 230zM158 1296q80 102 214 106q62 2 143 -53t101 -55q24 0 102 64l78 -156q-32 -32 -88 -55t-88 -23q-64 0 -156 62q-72 48 -90 46q-54 0 -134 -96zM282 280q0 -58 37 -101t87 -43q124 0 204 98l2 222q-62 0 -150 -16 q-98 -16 -130 -38q-50 -30 -50 -122z" />
<glyph unicode="&#xe4;" horiz-adv-x="1004" d="M84 278q0 170 98 242q64 44 250 80q96 18 174 26v108q0 46 -37 85t-85 39q-186 0 -304 -140l-88 126q56 92 182 152q110 54 210 52q146 0 245 -94t99 -240v-514q0 -12 15 -28t31 -16q66 0 86 20l24 -130q-124 -68 -202 -68q-30 0 -80 36q-56 42 -70 96q-86 -76 -118 -98 q-68 -46 -136 -44q-122 0 -204 80q-90 88 -90 230zM154 1224q0 56 32 96q40 52 110 52q68 0 110 -52q34 -44 34 -96q0 -56 -34 -98q-40 -50 -110 -48q-70 0 -108 48q-34 40 -34 98zM282 280q0 -58 37 -101t87 -43q124 0 204 98l2 222q-62 0 -150 -16q-98 -16 -130 -38 q-50 -30 -50 -122zM584 1224q0 56 32 96q40 52 112 52q66 0 108 -52q34 -44 34 -96q0 -56 -34 -98q-40 -50 -108 -48q-70 0 -112 48q-32 40 -32 98z" />
<glyph unicode="&#xe5;" horiz-adv-x="1004" d="M84 278q0 170 98 242q64 44 250 80q96 18 174 26v108q0 46 -37 85t-85 39q-186 0 -304 -140l-88 126q56 92 182 152q110 54 210 52q146 0 245 -94t99 -240v-514q0 -12 15 -28t31 -16q66 0 86 20l24 -130q-124 -68 -202 -68q-30 0 -80 36q-56 42 -70 96q-86 -76 -118 -98 q-68 -46 -136 -44q-122 0 -204 80q-90 88 -90 230zM282 280q0 -58 37 -101t87 -43q124 0 204 98l2 222q-62 0 -150 -16q-98 -16 -130 -38q-50 -30 -50 -122zM308 1338q0 76 51 126t133 50q84 0 135 -50t51 -126q0 -78 -51 -128t-135 -50q-82 0 -133 50t-51 128zM426 1338 q0 -90 66 -90q68 0 68 90q0 88 -68 88q-66 0 -66 -88z" />
<glyph unicode="&#xe6;" horiz-adv-x="1586" d="M84 278q0 170 104 248q68 50 254 94q80 18 180 34v80q0 44 -37 74t-87 30q-94 0 -266 -140l-126 166q84 76 210 134q116 52 182 50q184 0 286 -134q132 124 336 124q158 0 262 -112t104 -304v-132h-614q4 -350 256 -350q110 0 232 160l110 -146q-144 -178 -356 -178 q-234 0 -358 142q-108 -94 -180 -120q-82 -30 -186 -30q-126 0 -214 80q-92 86 -92 230zM302 274q-2 -110 110 -110q68 0 130 28q80 34 80 94v152l-108 -18q-112 -20 -142 -32q-72 -32 -70 -114zM874 666h386v2q0 210 -152 210q-110 0 -162 -54q-38 -40 -72 -158z" />
<glyph unicode="&#xe7;" horiz-adv-x="988" d="M80 496q0 274 160 424q134 130 324 126q116 0 310 -130l-68 -142q-134 108 -262 108q-110 0 -172 -130q-54 -110 -52 -262q0 -158 66 -255t174 -97q120 0 266 130l92 -120q-144 -164 -338 -172h-8l-6 -72q18 8 50 8q86 0 140 -60q46 -50 46 -122t-48 -124 q-56 -56 -150 -54q-130 0 -176 98l76 70q58 -66 102 -66q74 0 74 70q0 80 -70 80q-28 0 -70 -32l-96 44l8 168h8q-210 36 -310 232q-70 134 -70 280zM428 -350l76 70q58 -66 102 -66q74 0 74 70q0 80 -70 80q-28 0 -70 -32l-96 44l10 168l118 -8l-6 -72q18 8 50 8 q86 0 140 -60q48 -52 46 -122q0 -72 -48 -124q-56 -56 -150 -54q-130 0 -176 98z" />
<glyph unicode="&#xe8;" horiz-adv-x="1016" d="M80 506q0 232 122 380q132 158 356 158q154 0 258 -102q114 -112 114 -300v-154h-606q4 -346 240 -348q134 -2 266 128l92 -124q-106 -102 -186 -138q-72 -30 -188 -30q-268 0 -390 220q-78 144 -78 310zM302 1304l438 -170l88 148l-440 182zM338 662h368 q10 224 -164 222q-70 0 -122 -52q-64 -62 -82 -170z" />
<glyph unicode="&#xe9;" horiz-adv-x="1016" d="M80 506q0 232 122 380q132 158 356 158q154 0 258 -102q114 -112 114 -300v-154h-606q4 -346 240 -348q134 -2 266 128l92 -124q-106 -102 -186 -138q-72 -30 -188 -30q-268 0 -390 220q-78 144 -78 310zM258 1282l440 182l66 -160l-438 -170zM338 662h368 q10 224 -164 222q-70 0 -122 -52q-64 -62 -82 -170z" />
<glyph unicode="&#xea;" horiz-adv-x="1016" d="M80 506q0 232 122 380q132 158 356 158q154 0 258 -102q114 -112 114 -300v-154h-606q4 -346 240 -348q134 -2 266 128l92 -124q-106 -102 -186 -138q-72 -30 -188 -30q-268 0 -390 220q-78 144 -78 310zM276 1148v182l284 216l290 -216v-180l-290 158zM338 662h368 q10 224 -164 222q-70 0 -122 -52q-64 -62 -82 -170z" />
<glyph unicode="&#xeb;" horiz-adv-x="1016" d="M80 506q0 232 122 380q132 158 356 158q154 0 258 -102q114 -112 114 -300v-154h-606q4 -346 240 -348q134 -2 266 128l92 -124q-106 -102 -186 -138q-72 -30 -188 -30q-268 0 -390 220q-78 144 -78 310zM152 1286q0 54 36 96q38 52 108 52q68 0 108 -52q34 -44 36 -96 q0 -56 -36 -98q-40 -50 -108 -50q-70 0 -108 50q-36 40 -36 98zM338 662h368q10 224 -164 222q-70 0 -122 -52q-64 -62 -82 -170zM582 1286q0 56 34 96q40 52 110 52q68 0 108 -52q34 -44 36 -96q0 -56 -36 -98q-40 -50 -108 -50q-70 0 -108 50q-36 40 -36 98z" />
<glyph unicode="&#xec;" horiz-adv-x="508" d="M-26 1304l438 -170l130 148l-440 182zM130 0v1014h218v-1014h-218z" />
<glyph unicode="&#xed;" horiz-adv-x="478" d="M-20 1282l438 182l86 -160l-438 -170zM130 0v1014h218v-1014h-218z" />
<glyph unicode="&#xee;" horiz-adv-x="430" d="M-50 1068v180l282 216l292 -216v-178l-292 156zM130 0v1014h218v-1014h-218z" />
<glyph unicode="&#xef;" horiz-adv-x="422" d="M-112 1286q0 54 34 96q38 52 108 52q68 0 110 -52q34 -44 34 -96q0 -56 -34 -98q-40 -50 -110 -50t-108 50q-34 40 -34 98zM130 0v1014h218v-1014h-218zM318 1286q0 56 32 96q40 52 110 52q68 0 110 -52q34 -44 34 -96q0 -56 -34 -98q-40 -50 -110 -50t-108 50 q-34 40 -34 98z" />
<glyph unicode="&#xf0;" horiz-adv-x="1184" d="M74 510q0 284 156 430q136 126 350 128q54 0 224 -118q0 46 -46 104q-26 30 -56 64h-286v150h180q-26 40 -114 130l152 110q120 -118 204 -240h274v-150h-154q52 -112 86 -284q32 -160 32 -262q-8 -606 -538 -606q-216 0 -348 178q-116 156 -116 366zM318 514 q0 -146 74 -268q80 -132 188 -132q132 0 200 124q60 106 62 270q2 200 2 198q-154 212 -268 212q-120 0 -194 -120q-66 -110 -64 -284z" />
<glyph unicode="&#xf1;" horiz-adv-x="994" d="M130 0v1016h218v-182q124 212 252 212q130 0 222 -100q98 -106 98 -266v-680h-220v656q0 102 -36 158q-30 50 -80 48q-76 0 -156 -87t-80 -155v-620h-218zM200 1296q80 102 216 106q62 2 142 -53t102 -55q24 0 102 64l78 -156q-32 -32 -89 -55t-87 -23q-64 0 -156 62 q-72 48 -90 46q-54 0 -136 -96z" />
<glyph unicode="&#xf2;" horiz-adv-x="1112" d="M80 516q0 262 166 410q138 122 320 122q180 0 312 -122q160 -146 160 -410q0 -180 -92 -330q-130 -208 -382 -208q-276 0 -402 210q-82 140 -82 328zM318 504q0 -148 58 -250q66 -116 180 -116q116 0 184 118q62 104 60 258q0 150 -54 254q-64 118 -172 118 q-124 0 -196 -120q-60 -106 -60 -262zM364 1324l96 132l430 -196l-98 -122z" />
<glyph unicode="&#xf3;" horiz-adv-x="1112" d="M80 516q0 262 166 410q138 122 320 122q180 0 312 -122q160 -146 160 -410q0 -180 -92 -330q-130 -208 -382 -208q-276 0 -402 210q-82 140 -82 328zM318 504q0 -148 58 -250q66 -116 180 -116q116 0 184 118q62 104 60 258q0 150 -54 254q-64 118 -172 118 q-124 0 -196 -120q-60 -106 -60 -262zM344 1282l440 182l128 -160l-438 -170z" />
<glyph unicode="&#xf4;" horiz-adv-x="1112" d="M80 516q0 262 166 410q138 122 320 122q180 0 312 -122q160 -146 160 -410q0 -180 -92 -330q-130 -208 -382 -208q-276 0 -402 210q-82 140 -82 328zM296 1068v180l284 216l290 -216v-178l-290 156zM318 504q0 -148 58 -250q66 -116 180 -116q116 0 184 118 q62 104 60 258q0 150 -54 254q-64 118 -172 118q-124 0 -196 -120q-60 -106 -60 -262z" />
<glyph unicode="&#xf5;" horiz-adv-x="1112" d="M80 516q0 262 166 410q138 122 320 122q180 0 312 -122q160 -146 160 -410q0 -180 -92 -330q-130 -208 -382 -208q-276 0 -402 210q-82 140 -82 328zM266 1296q80 102 216 106q62 2 141 -53t99 -55q26 0 106 64l76 -156q-32 -32 -89 -55t-87 -23q-60 0 -156 62 q-74 48 -90 46q-54 0 -136 -96zM318 504q0 -148 58 -250q66 -116 180 -116q116 0 184 118q62 104 60 258q0 150 -54 254q-64 118 -172 118q-124 0 -196 -120q-60 -106 -60 -262z" />
<glyph unicode="&#xf6;" horiz-adv-x="1112" d="M80 516q0 262 166 410q138 122 320 122q180 0 312 -122q160 -146 160 -410q0 -180 -92 -330q-130 -208 -382 -208q-276 0 -402 210q-82 140 -82 328zM214 1286q0 54 36 96q38 52 108 52q68 0 108 -52q34 -44 36 -96q0 -56 -36 -98q-40 -50 -108 -50q-70 0 -108 50 q-36 40 -36 98zM318 504q0 -148 58 -250q66 -116 180 -116q116 0 184 118q62 104 60 258q0 150 -54 254q-64 118 -172 118q-124 0 -196 -120q-60 -106 -60 -262zM644 1286q0 56 34 96q40 52 110 52q68 0 108 -52q34 -44 36 -96q0 -56 -36 -98q-40 -50 -108 -50 q-70 0 -108 50q-36 40 -36 98z" />
<glyph unicode="&#xf7;" horiz-adv-x="1014" d="M106 532v206h828v-206h-828zM390 290q0 66 43 113t103 47q64 0 107 -47t43 -113q0 -68 -43 -114t-107 -46q-62 0 -104 46t-42 114zM390 984q0 68 43 114t103 46q64 0 107 -47t43 -113t-43 -113t-107 -47q-62 0 -104 47t-42 113z" />
<glyph unicode="&#xf8;" horiz-adv-x="1118" d="M80 516q0 262 166 410q138 122 320 122h22l42 146l222 -70l-44 -146q230 -142 230 -462q0 -180 -92 -330q-130 -208 -382 -208q-36 0 -54 2l-38 -132l-220 70l38 134q-118 78 -172 232q-38 108 -38 232zM318 504q0 -122 42 -220l178 600q-108 -16 -168 -134 q-54 -102 -52 -246zM558 138q116 2 184 118q58 106 58 258q0 148 -54 254z" />
<glyph unicode="&#xf9;" horiz-adv-x="986" d="M130 340v674h218v-668q0 -192 106 -192q74 0 160 94q80 86 80 140v626h220v-1014h-200q-6 56 -20 146q-142 -182 -254 -182q-126 0 -216 100q-94 108 -94 276zM302 1324l94 132l432 -196l-100 -122z" />
<glyph unicode="&#xfa;" horiz-adv-x="986" d="M130 340v674h218v-668q0 -192 106 -192q74 0 160 94q80 86 80 140v626h220v-1014h-200q-6 56 -20 146q-142 -182 -254 -182q-126 0 -216 100q-94 108 -94 276zM258 1282l440 182l128 -160l-438 -170z" />
<glyph unicode="&#xfb;" horiz-adv-x="986" d="M130 340v674h218v-668q0 -192 106 -192q74 0 160 94q80 86 80 140v626h220v-1014h-200q-6 56 -20 146q-142 -182 -254 -182q-126 0 -216 100q-94 108 -94 276zM256 1068v180l282 216l292 -216v-178l-292 156z" />
<glyph unicode="&#xfc;" horiz-adv-x="986" d="M130 340v674h218v-668q0 -192 106 -192q74 0 160 94q80 86 80 140v626h220v-1014h-200q-6 56 -20 146q-142 -182 -254 -182q-126 0 -216 100q-94 108 -94 276zM174 1286q0 54 36 96q38 52 108 52q68 0 108 -52q34 -44 36 -96q0 -56 -36 -98q-40 -50 -108 -50 q-70 0 -108 50q-36 40 -36 98zM604 1286q0 56 34 96q40 52 110 52q68 0 108 -52q34 -44 36 -96q0 -56 -36 -98q-40 -50 -108 -50q-70 0 -108 50q-36 40 -36 98z" />
<glyph unicode="&#xfd;" horiz-adv-x="982" d="M34 -352l66 194q76 -40 144 -40q104 -2 176 264l-372 902l232 62l242 -750l222 746l206 -52l-408 -1134q-36 -96 -108 -162q-88 -80 -200 -80q-58 0 -200 50zM252 1318l440 182l66 -160l-438 -170z" />
<glyph unicode="&#xfe;" horiz-adv-x="1068" d="M122 -400v1802h232v-518q90 86 112 104q70 54 128 52q198 0 314 -152q100 -140 102 -350q2 -292 -132 -442q-118 -134 -320 -132q-84 0 -142 28q-12 6 -56 34l-6 4v-430h-232zM354 228q28 -26 93 -52t111 -26q106 0 162 116q52 102 52 252q0 136 -44 224 q-54 104 -160 104q-54 0 -122 -80q-54 -66 -92 -148v-390z" />
<glyph unicode="&#xff;" horiz-adv-x="956" d="M46 -352l64 194q76 -40 144 -40q62 0 112 118q30 90 60 178l-368 870l216 62l260 -750l222 746l204 -52l-408 -1134q-34 -96 -108 -162q-88 -80 -200 -80q-52 0 -198 50zM132 1224q0 56 32 96q40 52 110 52q66 0 106 -52q34 -44 36 -96q0 -56 -36 -98q-38 -50 -106 -48 q-70 0 -110 48q-32 40 -32 98zM560 1224q0 54 34 96q38 52 108 52q68 0 110 -52q34 -44 34 -96q0 -56 -34 -98q-40 -50 -110 -48q-70 0 -108 48q-34 40 -34 98z" />
<glyph unicode="&#x152;" horiz-adv-x="2104" d="M86 696q0 286 172 468t442 182q308 0 498 -302v264h776v-214h-588v-296h570v-202h-570v-376h588v-220h-776v322q-196 -328 -510 -328q-264 0 -430 184q-172 192 -172 518zM330 678q0 -194 104 -336t254 -142q152 0 262 142t110 336q0 196 -101 330t-261 134t-264 -135 t-104 -329z" />
<glyph unicode="&#x153;" horiz-adv-x="2114" d="M182 516q0 262 172 410q142 122 332 122q122 0 234 -58q124 -66 192 -192q132 240 410 240q160 0 260 -100q110 -106 110 -296v-154h-604q14 -348 220 -348q144 0 258 164l126 -164q-176 -164 -400 -164q-166 0 -264 76q-72 56 -126 172q-134 -246 -418 -246 q-286 0 -416 210q-86 140 -86 328zM428 504q0 -144 62 -242q68 -106 186 -106q122 0 192 108q62 100 62 250q0 148 -60 244q-64 108 -176 108q-132 0 -202 -110q-64 -98 -64 -252zM1314 662h366q-4 82 -44 142q-48 74 -128 74q-178 0 -194 -216z" />
<glyph unicode="&#x178;" horiz-adv-x="986" d="M54 1272l224 68l252 -572l248 572l218 -68l-348 -716v-556h-244v556zM196 1552q0 56 34 96q40 52 110 52q68 0 108 -52q34 -44 36 -96q0 -56 -36 -98q-40 -50 -108 -50q-70 0 -108 50q-36 40 -36 98zM626 1552q0 56 34 96q40 52 110 52q66 0 108 -52q34 -44 36 -96 q0 -56 -36 -98q-40 -50 -108 -50q-70 0 -110 50q-34 40 -34 98z" />
<glyph unicode="&#x2c6;" horiz-adv-x="690" d="M72 1068v180l282 216l292 -216v-178l-292 156z" />
<glyph unicode="&#x2dc;" horiz-adv-x="768" d="M82 1296q84 102 218 106q62 2 140 -53t100 -55q28 0 104 64l76 -156q-32 -32 -88 -55t-88 -23q-62 0 -154 62q-72 48 -90 46q-54 0 -136 -96z" />
<glyph unicode="&#x2000;" horiz-adv-x="896" />
<glyph unicode="&#x2001;" horiz-adv-x="1792" />
<glyph unicode="&#x2002;" horiz-adv-x="896" />
<glyph unicode="&#x2003;" horiz-adv-x="1792" />
<glyph unicode="&#x2004;" horiz-adv-x="597" />
<glyph unicode="&#x2005;" horiz-adv-x="448" />
<glyph unicode="&#x2006;" horiz-adv-x="298" />
<glyph unicode="&#x2007;" horiz-adv-x="298" />
<glyph unicode="&#x2008;" horiz-adv-x="224" />
<glyph unicode="&#x2009;" horiz-adv-x="358" />
<glyph unicode="&#x200a;" horiz-adv-x="99" />
<glyph unicode="&#x2010;" horiz-adv-x="778" d="M102 546v192h574v-192h-574z" />
<glyph unicode="&#x2011;" horiz-adv-x="778" d="M102 546v192h574v-192h-574z" />
<glyph unicode="&#x2012;" horiz-adv-x="778" d="M102 546v192h574v-192h-574z" />
<glyph unicode="&#x2013;" d="M70 598v146h884v-146h-884z" />
<glyph unicode="&#x2014;" horiz-adv-x="2048" d="M56 598v146h1936v-146h-1936z" />
<glyph unicode="&#x2018;" horiz-adv-x="282" d="M2 1010q0 74 50 192q42 108 94 180l134 -6q-38 -84 -52 -190q-2 -20 -10 -176h-216z" />
<glyph unicode="&#x2019;" horiz-adv-x="282" d="M2 1036q38 84 54 190q2 20 10 176h214q0 -74 -48 -202q-44 -120 -94 -190z" />
<glyph unicode="&#x201a;" horiz-adv-x="438" d="M2 -192q38 84 54 190q2 20 10 176h214q0 -74 -48 -202q-44 -122 -94 -192z" />
<glyph unicode="&#x201c;" horiz-adv-x="878" d="M104 1010q0 74 50 192q42 108 94 180l134 -6q-38 -84 -52 -190q-2 -20 -10 -176h-216zM514 1010q0 74 50 192q42 108 94 180l134 -6q-38 -84 -52 -190q-2 -20 -10 -176h-216z" />
<glyph unicode="&#x201d;" horiz-adv-x="878" d="M104 1016q38 84 54 190q2 20 10 176h214q0 -74 -48 -202q-44 -120 -94 -190zM514 1016q38 84 54 190q2 20 10 176h214q0 -74 -48 -202q-44 -120 -94 -190z" />
<glyph unicode="&#x201e;" horiz-adv-x="854" d="M104 -212q38 84 54 190q2 20 10 176h214q0 -74 -48 -204q-44 -120 -94 -190zM514 -212q38 84 54 190q2 20 10 176h214q0 -74 -48 -204q-44 -120 -94 -190z" />
<glyph unicode="&#x2022;" horiz-adv-x="576" d="M98 596q0 88 55 146t133 58q76 0 132 -58t56 -146t-56 -147t-132 -59q-78 0 -133 58t-55 148z" />
<glyph unicode="&#x2026;" horiz-adv-x="1842" d="M256 108q0 86 56 138q50 46 122 44q74 0 125 -48t51 -134q0 -84 -51 -133t-125 -49q-72 0 -125 49t-53 133zM746 108q0 86 54 138q50 46 124 44q74 0 125 -48t51 -134q0 -84 -51 -133t-125 -49q-72 0 -125 49t-53 133zM1234 108q0 86 56 138q50 46 124 44q74 0 125 -48 t51 -134q0 -84 -52 -133t-124 -49t-126 49t-54 133z" />
<glyph unicode="&#x202f;" horiz-adv-x="358" />
<glyph unicode="&#x2039;" horiz-adv-x="652" d="M100 592l300 332l208 -8l-254 -330l254 -328l-208 -8z" />
<glyph unicode="&#x203a;" horiz-adv-x="648" d="M62 258l252 328l-252 330l206 8l300 -332l-300 -342z" />
<glyph unicode="&#x205f;" horiz-adv-x="448" />
<glyph unicode="&#x2122;" horiz-adv-x="1312" d="M30 1208v106h508v-106h-182v-562h-130v562h-196zM590 646v672h160l182 -468l182 468h154v-672h-132v406l-156 -406h-110l-158 410v-410h-122z" />
<glyph unicode="&#xe000;" horiz-adv-x="1050" d="M0 0v1050h1050v-1050h-1050z" />
</font>
</defs>
</svg>
